PathFileType	4	(X/Y/Z)	F:\MotionCapture\20160217\3\Generated_files\2_Test04-Dynamic.trc
DataRate	CameraRate	NumFrames	NumMarkers	Units	OrigDataRate	OrigDataStartFrame	OrigNumFrames
120.00	120.00	       9	39	mm	120.00	743	       849
Frame#	Time	Top.Head			Front.Head			Rear.Head			R.Shoulder			R.Offset			R.Elbow			R.Wrist			L.Shoulder			L.Elbow			L.Wrist			R.ASIS			L.ASIS			V.Sacral			R.Thigh			R.Knee			R.Shank			R.Ankle			R.Heel			R.Toe			L.Thigh			L.Knee			L.Shank			L.Ankle			L.Heel			L.Toe			R1			R2			R3			R4			R5			R6			R7			L1			L2			L3			L4			L5			L6			L7			V_Mid_ASIS			V_Pelvis_Origin			V_R.Hip_JC			V_L.Hip_JC			V_R.Knee_JC			V_L.Knee_JC			V_R.Ankle_JC			V_L.Ankle_JC			V_Mid_Hip			V_Mid_Shoulder			V_R.Hand			V_L.Hand			V_R.Toe_Offset_Static			V_L.Toe_Offset_Static			V_R.Toe_Offset			V_L.Toe_Offset			
		X1	Y1	Z1	X2	Y2	Z2	X3	Y3	Z3	X4	Y4	Z4	X5	Y5	Z5	X6	Y6	Z6	X7	Y7	Z7	X8	Y8	Z8	X9	Y9	Z9	X10	Y10	Z10	X11	Y11	Z11	X12	Y12	Z12	X13	Y13	Z13	X14	Y14	Z14	X15	Y15	Z15	X16	Y16	Z16	X17	Y17	Z17	X18	Y18	Z18	X19	Y19	Z19	X20	Y20	Z20	X21	Y21	Z21	X22	Y22	Z22	X23	Y23	Z23	X24	Y24	Z24	X25	Y25	Z25	X26	Y26	Z26	X27	Y27	Z27	X28	Y28	Z28	X29	Y29	Z29	X30	Y30	Z30	X31	Y31	Z31	X32	Y32	Z32	X33	Y33	Z33	X34	Y34	Z34	X35	Y35	Z35	X36	Y36	Z36	X37	Y37	Z37	X38	Y38	Z38	X39	Y39	Z39	

743	6.183	-2892.03589	214.87636	1681.33813	-2988.86401	162.08987	1595.36914	-2785.27588	248.65953	1615.33496	-2821.63647	400.00143	1382.58032	-2695.97437	133.90344	1229.25977	-2841.32910	540.81702	1075.51196	-3060.55957	537.50073	931.91052	-2847.92285	-7.19782	1375.77625	-2751.03760	-116.23809	1077.49536	-2770.51563	-135.24344	819.94757	-2878.28516	371.31082	910.32281				-2687.77539	172.70981	900.63312	-2833.72705	327.53946	521.74658	-2706.61743	351.74646	437.91241	-2627.67065	265.55942	220.64886	-2495.02637	317.42770	89.39046	-2437.14160	246.84033	82.75182	-2633.30737	316.52814	38.10772	-3060.83472	129.53914	636.61627	-3043.50464	67.39767	458.82632	-3114.49365	138.84636	337.61731				-3103.25757	151.26895	27.70951				-2682.35815	301.19232	31.02184	-2643.64087	279.32480	41.95999	-2556.94678	235.36128	63.84243	-2482.53662	223.86118	73.13316	-2460.39502	293.61151	74.35476	-2528.18115	330.65524	44.34299	-2587.73071	353.65140	32.20428				-3290.38745	104.84342	105.35525	-3215.24219	164.34805	79.54496	-3142.45435	177.54665	40.96587	-3119.93750	107.42160	34.52227	-3194.46289	69.38450	49.79267	-3246.12329	50.89095	74.25921																																																	-3217.30786	118.21865	47.75988	-3339.75732	582.07294	413.45688	-3013.20654	91.17414	200.95439	
744	6.192	-2903.23438	211.59036	1680.52466	-2999.77295	158.82407	1594.09485	-2796.79492	246.36800	1614.32153	-2832.82788	398.09549	1381.71301	-2707.33301	131.30000	1228.24622	-2850.98584	538.45099	1074.45520	-3069.66895	536.02649	929.57330	-2858.24854	-9.18978	1374.27380	-2761.58179	-117.12329	1075.64417	-2779.97681	-136.21552	817.91071	-2895.59497	365.78522	908.93878	-2950.55518	82.48096	911.02838	-2700.62329	171.12651	899.17242	-2842.98511	327.39041	519.79285	-2714.94165	351.89023	437.27158	-2632.47607	266.26807	221.48528	-2499.02832	317.73792	91.76619	-2439.05981	246.83498	88.46123	-2633.34253	316.62991	37.99623	-3072.61035	128.93556	635.97571	-3053.82104	66.15450	457.04575	-3123.91846	138.92142	335.03156				-3105.18213	151.68509	30.17994				-2682.33252	301.65912	30.98247	-2643.64160	280.32846	41.63125	-2558.82544	235.27560	67.10517	-2484.11743	224.81934	77.14501	-2461.95142	294.55997	79.31781	-2527.91821	331.60895	46.10056	-2587.90161	353.60330	32.28574	-3345.45117	586.19446	410.60599				-3220.58765	164.32864	73.62333	-3144.98706	177.68790	41.17377	-3123.22461	107.92841	34.58965	-3197.40234	69.04922	47.15651	-3250.16919	50.92933	65.48361																																																	-2748.00317	-141.88809	248.91460	-3287.27075	74.73818	80.96685	-2431.14819	446.73965	-39.52235	
745	6.200	-2914.26929	209.02115	1679.83276	-3010.95947	155.79050	1593.46472	-2808.41699	244.00687	1613.71960	-2843.27612	395.41098	1380.90515	-2717.74316	129.61508	1225.89355	-2860.70557	536.01691	1073.33679	-3078.46509	533.51221	927.12408	-2869.50049	-12.22995	1372.98999	-2772.22144	-118.80987	1073.94434	-2789.95264	-137.40811	816.09094	-2905.55615	365.32510	908.29382	-2962.50879	81.17152	910.63428	-2713.64893	168.89899	898.47766	-2853.39697	328.02838	518.47302	-2724.35742	352.52008	436.73413	-2637.47583	267.34583	222.28976	-2501.58032	318.90186	95.48329	-2441.44067	247.77010	94.45951	-2633.52515	316.81219	38.00209	-3083.66504	127.95090	634.67578	-3064.61597	64.22195	456.84955	-3132.78125	138.95793	333.81430				-3106.78174	151.27824	31.94629	-3291.79688	74.95693	72.08590	-2682.66211	301.30853	31.57358	-2644.74780	279.80508	42.27630	-2560.78345	235.97266	70.12476	-2488.08911	223.17026	84.53634	-2464.30078	295.13315	84.26470	-2528.57422	331.43842	47.95013	-2588.12598	353.55542	32.47522				-3310.76587	107.74826	79.50662	-3226.85864	162.36687	67.13771	-3146.67529	177.82997	40.98920	-3125.98193	107.78690	35.57537	-3199.32446	70.44421	42.68499	-3253.16846	51.66354	57.52083																																																	-2433.37427	448.15515	-36.71446	-3339.64722	89.56526	83.97084	-3292.07422	118.34271	103.70730	-3269.37646	23.22982	85.70002	
746	6.208	-2925.81079	206.37564	1680.04553	-3021.83105	152.59402	1593.58044	-2819.69214	242.10072	1613.59827	-2854.39404	393.81735	1380.66821	-2728.60938	128.36301	1225.35205	-2870.80347	533.82471	1072.61597	-3086.91333	531.51660	924.62360	-2880.34204	-15.09673	1371.80481	-2783.29736	-120.09084	1072.33496	-2800.38013	-138.55028	814.48608	-2918.16895	363.81720	906.82263	-2974.04541	79.84332	910.52789				-2864.52490	328.49329	517.76654	-2734.20264	352.58621	435.85345	-2643.21313	268.48077	223.63875	-2503.89404	318.78354	99.68896	-2444.76440	248.31117	100.79079	-2633.86841	316.96603	37.91285				-3075.57739	62.83733	457.84418	-3140.86035	139.21060	333.34500	-3154.06445	81.29650	60.61009	-3108.74219	150.40240	33.61871	-3296.45459	75.75487	64.97954	-2683.08105	301.16025	32.32697	-2645.04712	280.33545	41.84784	-2562.87256	237.10187	73.47857	-2490.37744	224.64584	89.42133	-2467.18921	295.18570	89.15854	-2530.17505	330.65662	49.82740	-2588.68359	352.96860	32.64809				-3314.82080	108.67718	70.86005	-3230.26685	163.34549	62.83797	-3148.47144	176.38812	40.60680	-3129.24316	106.27036	36.13269	-3200.93555	70.02762	37.38643	-3257.59839	50.45969	52.58224																																																	-2694.07397	-198.86389	220.42618	-4125.08643	-512.96783	636.69794	-2435.87231	448.48923	-33.42826	-3275.04370	20.72591	84.51955	
747	6.217	-2937.31250	203.08832	1680.16125	-3034.61035	148.40204	1593.26318	-2831.43921	239.81062	1614.06592	-2865.06519	391.21768	1380.44727	-2739.49976	125.40092	1225.39697	-2879.95508	530.76697	1071.95618	-3094.81396	529.80737	921.65204	-2890.95166	-17.00703	1370.98242	-2794.37085	-121.74471	1071.01282	-2811.61572	-139.69145	813.11224	-2928.33594	362.73914	906.04742	-2985.33862	78.59855	910.93939	-2736.15405	164.00272	896.61237	-2876.48560	329.01627	517.59662	-2745.75439	354.46658	436.84583	-2649.84619	269.59442	225.54724	-2507.16089	319.77805	105.21479	-2448.58008	249.04645	108.38160	-2634.38916	317.05795	37.94324	-3107.33081	120.59789	635.37689	-3086.80957	61.45890	459.57614	-3148.67383	138.88338	333.07443				-3110.76440	148.67772	35.29370	-3301.23120	75.31955	57.77534	-2683.17676	300.99237	32.27230	-2645.66943	280.46494	41.61087	-2565.87427	238.20567	77.24399	-2494.07886	225.58073	95.08127	-2470.51489	297.06348	96.43276	-2531.76221	332.31415	53.52747	-2589.45313	352.79395	33.36643	-3348.73462	92.81848	66.22118	-3318.92090	110.32333	63.92176	-3231.64502	165.71393	61.06779	-3151.00537	174.43369	40.97411	-3130.07153	105.48583	36.11045	-3204.75049	69.44907	34.57472	-3260.94653	53.01551	46.51867																																																	-3192.50854	26.00419	114.21428	
748	6.225	-2948.67847	200.61346	1680.71765	-3045.60278	145.14986	1593.43872	-2842.91870	238.41693	1614.17249	-2876.11182	389.99600	1380.97742	-2750.59985	123.63133	1225.58313	-2889.29004	527.76361	1071.65051	-3102.67871	527.82672	919.01984	-2901.76587	-20.30508	1370.61792	-2805.92627	-123.09051	1069.98804	-2823.16772	-140.63692	812.04742	-2939.64014	361.14706	905.45264	-2996.73853	76.85731	911.95795	-2747.29858	162.92622	895.83118	-2889.43042	329.54749	517.40961	-2757.58936	355.13535	436.81433	-2656.78809	272.18784	227.37732	-2511.18726	321.15152	110.83129	-2453.69263	249.49716	116.91573	-2634.77515	317.13504	37.99399	-3118.43970	117.26646	636.69904	-3098.61743	59.21842	461.30811	-3156.65625	138.03902	333.32181	-3161.49536	79.60961	62.37556	-3113.44580	146.58386	36.88394	-3305.03906	76.87709	51.60165	-2683.16919	301.02621	32.30291	-2646.39380	280.65140	41.55799	-2568.79224	241.35931	81.08732	-2498.10278	227.65189	101.53864	-2474.31323	297.37839	102.94985	-2533.51172	332.52872	56.87519	-2590.14063	352.80615	33.71122				-3322.10254	112.57900	57.87586	-3235.41113	163.97794	57.10403	-3152.25757	173.46376	41.38768	-3127.53003	104.41409	37.37931	-3207.17432	69.95792	31.38194	-3265.00122	53.98232	41.97208	
749	6.233	-2959.72876	197.52350	1681.25208	-3056.94629	141.25905	1593.84607	-2854.76489	235.87523	1614.86304	-2887.38062	387.99902	1382.05481	-2761.46948	122.31291	1225.74390	-2898.37988	524.93402	1071.64270	-3109.43066	526.02264	916.32861	-2912.16748	-22.10561	1370.72864	-2817.68481	-124.00253	1068.96582	-2835.55957	-141.73338	811.43286	-2951.58398	359.17352	905.70844	-3007.98364	74.73559	913.49927	-2759.82031	159.19807	896.35913	-2902.73804	329.26648	517.39197	-2770.83667	357.59232	437.03284	-2665.78931	273.94882	229.99002	-2516.11963	322.00919	116.96719	-2459.97290	250.53923	125.94726	-2635.00342	317.66541	37.05789	-3130.21436	114.84732	638.17377				-3164.94165	137.06624	332.96933	-3164.35547	78.70096	61.47797	-3115.01416	145.34419	38.00895	-3308.72510	78.31029	46.89885	-2683.13867	300.96817	32.31955	-2647.48340	280.68414	41.38404	-2573.76611	241.04543	86.09879	-2504.33228	228.43948	109.25842	-2478.81494	298.24551	111.28662	-2536.44873	333.64008	61.20127	-2591.43848	352.58063	33.85950	-3355.39526	96.01844	49.03700				-3237.05640	164.39432	54.90222	-3152.94116	173.85007	42.03052				-3208.62305	70.22855	30.58459	-3268.44141	53.09224	39.57902																																																	-3322.84570	73.79996	25.76402	-3259.01514	163.58514	0.66330	-2539.49097	374.61813	-11.94886	-2672.18726	325.62253	336.97644	
750	6.242	-2971.17358	195.37305	1681.83862	-3068.02124	137.55957	1594.53101	-2865.73608	232.98926	1616.00623	-2898.82031	386.06448	1382.90308	-2772.33008	119.66196	1227.32043	-2907.96021	521.98883	1072.43799	-3115.81348	523.38928	913.02850	-2922.31104	-24.08094	1371.38843	-2829.64307	-125.32202	1069.13354	-2848.59375	-142.73991	811.24597	-2963.66284	356.47516	906.03632	-3019.18726	72.39021	915.52277	-2772.05591	157.92032	897.45361	-2917.34766	329.66928	517.73749	-2784.16309	359.63312	437.74991	-2675.35547	276.78244	232.59212	-2521.70654	323.19574	123.74590	-2467.74976	251.79225	135.83176	-2636.03564	317.10202	37.92934	-3141.68970	111.26364	640.80804				-3173.05103	136.10699	332.72870				-3116.27515	144.56383	38.67929	-3311.82153	78.49369	43.95549	-2682.87451	300.77368	32.07919	-2648.35962	280.66336	41.16892	-2579.07080	244.12738	91.61102	-2511.59814	229.36148	117.99256	-2484.72681	299.20761	119.59089	-2539.07227	333.62701	65.09755	-2592.26196	351.74969	34.59506							-3238.73682	164.62424	52.71259	-3154.06885	173.66026	41.82338				-3210.13550	70.52646	31.18246	-3270.46704	52.37864	38.37651																																																	-3326.95605	69.64963	22.56001	-3264.37622	163.12570	-0.17106	-2541.02026	374.27039	-9.82939	-2682.80078	326.48050	336.71002	-3107.00220	64.29089	106.98860	-3365.95728	650.07916	400.58920	-3183.78564	50.62723	91.18214	-3226.77783	203.60469	-49.46880	
751	6.250	-2981.74146	191.71837	1683.18152	-3078.63696	134.04211	1595.65771	-2877.23315	230.74156	1616.90869	-2910.03491	384.14670	1384.51575	-2783.08154	118.62080	1228.18652	-2916.71460	518.94031	1073.34753	-3121.60132	520.82062	910.44421	-2932.65063	-26.58067	1372.09412	-2841.35742	-125.95148	1069.01306	-2862.20239	-143.78314	811.54797	-2975.72363	353.97830	906.41382	-3029.85693	69.93441	917.91132	-2783.42578	157.00893	898.24823	-2932.91748	331.15012	518.25024	-2799.28809	362.46216	438.72098	-2686.23364	280.23901	235.38039	-2528.54224	325.05017	131.44116	-2476.70264	252.44121	146.44254	-2636.29541	317.38913	36.04404							-3179.96484	136.68095	332.78839				-3117.06348	145.03409	39.63724	-3314.12305	77.36926	42.05304	-2682.03125	299.99200	31.48355	-2649.53857	280.41730	41.02725	-2585.83960	246.20871	97.54671	-2520.00537	231.08148	126.65466	-2491.95996	300.42346	128.24963	-2542.91260	335.05960	70.58507	-2593.65771	351.16727	35.56719	-3360.69434	95.65622	39.07178				-3240.08228	164.97598	51.01567	-3154.10986	173.94641	41.95399				-3210.94849	70.63280	31.06499	-3271.01440	52.91291	37.76145																																																	-3266.74609	163.26050	-1.49905	-2693.04590	327.17532	336.17722	-3341.32959	641.06732	390.72729	-3228.18555	203.54161	-52.81704	-3059.84106	157.59210	-14.70887	-2596.21655	269.00909	116.37378	
